<svg width="17" height="17" viewBox="0 0 17 17" fill="none" xmlns="http://www.w3.org/2000/svg">
<path fill-rule="evenodd" clip-rule="evenodd" d="M4.58325 0.25L15.8333 0.25C16.0322 0.25 16.2229 0.329018 16.3636 0.46967C16.5042 0.610322 16.5833 0.801088 16.5833 1V12.25C16.5833 12.6642 16.2475 13 15.8333 13C15.419 13 15.0833 12.6642 15.0833 12.25V2.81066L1.36358 16.5303C1.07069 16.8232 0.595815 16.8232 0.302922 16.5303C0.0100286 16.2374 0.0100286 15.7626 0.302922 15.4697L14.0226 1.75L4.58325 1.75C4.16904 1.75 3.83325 1.41421 3.83325 1C3.83325 0.585787 4.16904 0.25 4.58325 0.25Z" fill="#141414"/>
</svg>
